<svg xmlns="http://www.w3.org/2000/svg" viewBox="0 0 512 512">
  <defs>
    <linearGradient id="g" x1="0%" y1="0%" x2="100%" y2="100%">
      <stop offset="0%" stop-color="#22d3ee" />
      <stop offset="100%" stop-color="#6366f1" />
    </linearGradient>
  </defs>
  <rect width="512" height="512" rx="128" fill="url(#g)" />
  <g transform="translate(100, 100) scale(13)" fill="none" stroke="#ffffff" stroke-width="2.5" stroke-linecap="round" stroke-linejoin="round">
    <path d="M21.42 10.922a2 2 0 0 1-.01 3.832l-7.18 3.15c-1.35.59-2.89.6-4.26.02l-7.3-3.07a2 2 0 0 1 .05-3.8l7.27-3.23c1.37-.6 2.94-.58 4.3.05l7.13 3.04Z"/>
    <path d="M14 15.68V19a2 2 0 0 1-2 2h-1a2 2 0 0 1-2-2v-3.7"/>
    <path d="M22 13v6"/>
  </g>
</svg>
